# xmcd CD database file
#
# Track frame offsets:
#	150
#	37471
#	66542
#	102665
#	145456
#
# Disc length: 2593 seconds
#
# Revision: 0
# Processed by: cddbd v1.5.2PL0 Copyright (c) Steve Scherf et al.
# Submitted via: CDex 1.51
#
DISCID=570a1f05
DTITLE=Sun Ra - Lanquidity
DYEAR=1978
DGENRE=Jazz
TTITLE0=Lanquidity
TTITLE1=Where Pathways Meet
TTITLE2=That's How I Feel
TTITLE3=Twin Stars of Thence
TTITLE4=There Are Other Worlds [They Have Not Told You Of]
EXTD=YEAR: 1978
EXTT0=
EXTT1=
EXTT2=
EXTT3=
EXTT4=
PLAYORDER=
